# xmcd
#
# Track frame offsets:
# 150
# 19481
# 44812
# 61373
# 79899
# 104038
# 117428
# 131851
# 143851
# 167552
# 190878
# 204718
# 220057
#
# Disc length: 3181 seconds
#
# Revision: 0
# Processed by: cddbd v1.5.1PL0 Copyright (c) Steve Scherf et al.
# Submitted via: Audion 3.0.2 (http://www.panic.com/audion/)
#
DISCID=d10c6b0d
DTITLE=Stars - Set Yourself On Fire
DYEAR=1900
DGENRE=
TTITLE0=Your Ex-lover Is Dead
TTITLE1=Set Yourself On Fire
TTITLE2=Reunion
TTITLE3=Ageless Beauty
TTITLE4=Let It Go
TTITLE5=The First Five Times
TTITLE6=Soft Revolution
TTITLE7=Sleep Tonight
TTITLE8=One More Night
TTITLE9=He Lied About Death
TTITLE10=Celebration Guns
TTITLE11=What I'm Trying To Say
TTITLE12=Calender Girl
EXTD=
EXTT0=
EXTT1=
EXTT2=
EXTT3=
EXTT4=
EXTT5=
EXTT6=
EXTT7=
EXTT8=
EXTT9=
EXTT10=
EXTT11=
EXTT12=
PLAYORDER=
